<?xml version="1.0" encoding="utf-8"?>
<!-- Generator: Adobe Illustrator 19.2.1, SVG Export Plug-In . SVG Version: 6.00 Build 0)  -->
<svg version="1.1" id="Layer_1" xmlns="http://www.w3.org/2000/svg" xmlns:xlink="http://www.w3.org/1999/xlink" x="0px" y="0px"
	 viewBox="0 0 56.4 52" enable-background="new 0 0 56.4 52" xml:space="preserve">
<path fill="#04B2E1" d="M38,22.4c0-4.7,0.1-8.7,0-12.7c0-1.6,0.5-2.5,1.9-3.3c3.8-1.9,7.6-4.1,11.4-6c2-1,4.9,0.2,4.8,2.2
	c-0.1,8.8,0.8,17.6-0.4,26.3c-0.8,5.8-4.2,9.8-9.7,12.4c-5.1,2.3-9.9,5.1-14.7,8C21.6,55,7.1,51.5,2.2,40.1C0.8,36.9,0,33.9,0,30.5
	c0.1-6.2,0-12.4,0-18.6c0-1.3,0-2.3,1.6-3c4.9-2.4,9.7-5,14.5-7.7c4.3-2.3,6.4-1.2,6.4,3.6c0,7.4,0,14.8,0,22.1
	c0,5.1,6.4,11.9,11.4,12.6c2.1,0.3,2.9-0.6,3.4-2.5C38.6,31.9,37.6,26.7,38,22.4z"/>
<path fill="#FEFEFE" d="M19,3.2c0,7.5,0.1,14.3,0,21.1C18.9,33.8,23,38.2,31.1,42c2.3,1.1,2.2,1.5,0.6,2.8
	c-5.2,4.2-10.9,4.8-17.1,2.6c-6.4-2.3-9.9-7-10.3-13.6C4,27,4.3,20.2,4.2,13.5c0-1.3,0.2-2.2,1.4-2.9C9.9,8.3,14.2,5.9,19,3.2z"/>
<path fill="#FEFEFE" d="M52.7,3.6c0,8.2,0.2,16-0.1,23.8c-0.2,5.4-5.1,10.6-10.5,11.8c-0.7,0.2-2.2,0.7-1.8-0.9
	c1.9-8.6,0.7-17.2,0.9-25.8c0.1-2.3,0.6-3.7,2.7-4.6C46.9,6.6,49.6,5.2,52.7,3.6z"/>
</svg>
