<?xml version="1.0" encoding="utf-8"?>
<!-- Generator: Adobe Illustrator 19.2.1, SVG Export Plug-In . SVG Version: 6.00 Build 0)  -->
<svg version="1.1" id="Layer_1" xmlns="http://www.w3.org/2000/svg" xmlns:xlink="http://www.w3.org/1999/xlink" x="0px" y="0px"
	 viewBox="0 0 957 489" style="enable-background:new 0 0 957 489;" xml:space="preserve">
<style type="text/css">
	.st0{fill:#E7969C;}
	.st1{font-family:'Impact';}
	.st2{font-size:88.2353px;}
	.st3{fill:#CE6DBD;}
	.st4{fill:#DE9ED6;}
	.st5{fill:#5254A3;}
	.st6{fill:#8CA252;}
	.st7{fill:#6B6ECF;}
	.st8{fill:#9C9EDE;}
	.st9{fill:#CEDB9C;}
	.st10{font-size:10.3806px;}
	.st11{font-size:31.1419px;}
	.st12{fill:#BD9E39;}
	.st13{font-size:19.7232px;}
	.st14{font-size:51.9031px;}
	.st15{font-size:39.4464px;}
	.st16{font-size:36.3322px;}
	.st17{font-size:32.1799px;}
	.st18{fill:#637939;}
	.st19{fill:#B5CF6B;}
	.st20{font-size:30.1038px;}
	.st21{fill:#8C6D31;}
	.st22{font-size:28.0277px;}
	.st23{font-size:25.9516px;}
	.st24{fill:#843C39;}
	.st25{font-size:24.9135px;}
	.st26{font-size:16.609px;}
	.st27{fill:#E7CB94;}
	.st28{fill:#E7BA52;}
	.st29{font-size:22.8374px;}
	.st30{fill:#AD494A;}
	.st31{fill:#D6616B;}
	.st32{fill:#7B4173;}
	.st33{fill:#A55194;}
	.st34{fill:#393B79;}
</style>
<text transform="matrix(1 0 0 1 47.3691 271.8638)" class="st0 st1 st2">JavaScript</text>
<text transform="matrix(6.123234e-017 1 -1 6.123234e-017 506.7617 173.1118)" class="st3 st1 st2">JQuery</text>
<text transform="matrix(6.123234e-017 1 -1 6.123234e-017 705.1836 28.2974)" class="st4 st1 st2">CSS</text>
<text transform="matrix(6.123234e-017 1 -1 6.123234e-017 337.5566 284.6929)" class="st5 st1 st2">SQL</text>
<text transform="matrix(6.123234e-017 1 -1 6.123234e-017 330.291 7.9121)" class="st6 st1 st2">HTML</text>
<text transform="matrix(1 0 0 1 647.9375 342.3135)" class="st7 st1 st2">ASPNET</text>
<text transform="matrix(6.123234e-017 1 -1 6.123234e-017 226.2583 62.4517)" class="st0 st1 st2">C++</text>
<text transform="matrix(1 0 0 1 210.9141 473.8027)" class="st8 st1 st2">CSharp</text>
<text transform="matrix(6.123234e-017 1 -1 6.123234e-017 529.5996 436.2373)" class="st9 st1 st10">properties</text>
<text transform="matrix(1 0 0 1 226.915 384.0996)" class="st4 st1 st11">content</text>
<text transform="matrix(1 0 0 1 226.2583 58.1484)" class="st12 st1 st13">description</text>
<text transform="matrix(6.123234e-017 1 -1 6.123234e-017 599.1592 47.4609)" class="st5 st1 st14">Defines</text>
<text transform="matrix(1 0 0 1 257.3809 304.979)" class="st12 st1 st15">text</text>
<text transform="matrix(1 0 0 1 176.9067 330.1206)" class="st7 st1 st16">document</text>
<text transform="matrix(1 0 0 1 503.7139 45.6914)" class="st8 st1 st17">supported</text>
<text transform="matrix(1 0 0 1 568.9688 401.7471)" class="st18 st1 st17">HTML5</text>
<text transform="matrix(6.123234e-017 1 -1 6.123234e-017 183.9238 163.1504)" class="st6 st1 st11">list</text>
<text transform="matrix(6.123234e-017 1 -1 6.123234e-017 574.2363 245.3711)" class="st19 st1 st20">table</text>
<text transform="matrix(6.123234e-017 1 -1 6.123234e-017 117.0664 28.2974)" class="st21 st1 st20">instead</text>
<text transform="matrix(1 0 0 1 211.7773 359.1865)" class="st8 st1 st20">Use</text>
<text transform="matrix(6.123234e-017 1 -1 6.123234e-017 470.4297 271.8638)" class="st9 st1 st22">Specifies</text>
<text transform="matrix(1 0 0 1 470.8271 104.8613)" class="st21 st1 st23">section</text>
<text transform="matrix(6.123234e-017 1 -1 6.123234e-017 655.2051 154.688)" class="st24 st1 st25">element</text>
<text transform="matrix(1 0 0 1 267.1626 350.8818)" class="st12 st1 st13">header</text>
<text transform="matrix(6.123234e-017 1 -1 6.123234e-017 408.1465 126.9551)" class="st12 st1 st25">input</text>
<text transform="matrix(6.123234e-017 1 -1 6.123234e-017 604.3398 318.2319)" class="st5 st1 st26">title</text>
<text transform="matrix(1 0 0 1 582.5723 226.3145)" class="st27 st1 st26">object</text>
<text transform="matrix(6.123234e-017 1 -1 6.123234e-017 621.1787 280.2939)" class="st28 st1 st29">Groups</text>
<text transform="matrix(6.123234e-017 1 -1 6.123234e-017 861.3184 194.1348)" class="st27 st1 st13">&lt;video&gt;</text>
<text transform="matrix(1 0 0 1 168.3535 118.6479)" class="st24 st1 st13">caption</text>
<text transform="matrix(1 0 0 1 603.2949 266.7988)" class="st30 st1 st13">information</text>
<text transform="matrix(6.123234e-017 1 -1 6.123234e-017 434.0977 97.3091)" class="st31 st1 st13">&lt;audio&gt;</text>
<text transform="matrix(6.123234e-017 1 -1 6.123234e-017 454.8594 214.8706)" class="st0 st1 st13">user</text>
<text transform="matrix(1 0 0 1 149.061 298.9795)" class="st32 st1 st13">elements</text>
<text transform="matrix(6.123234e-017 1 -1 6.123234e-017 433.0586 226.9805)" class="st33 st1 st13">alternate</text>
<text transform="matrix(6.123234e-017 1 -1 6.123234e-017 827.7861 177.0801)" class="st3 st1 st13">clientside</text>
<text transform="matrix(6.123234e-017 1 -1 6.123234e-017 575.2734 404.2178)" class="st4 st1 st13">support</text>
<text transform="matrix(6.123234e-017 1 -1 6.123234e-017 192.2285 350.6299)" class="st34 st1 st13">dropdown</text>
<text transform="matrix(6.123234e-017 1 -1 6.123234e-017 414.375 277.6929)" class="st5 st1 st13">media</text>
<text transform="matrix(1 0 0 1 435.1191 386.1758)" class="st18 st1 st26">area</text>
<text transform="matrix(6.123234e-017 1 -1 6.123234e-017 699.8418 197.0591)" class="st3 st1 st10">code</text>
<text transform="matrix(1 0 0 1 452.2627 154.688)" class="st5 st1 st26">&lt;object&gt;</text>
<text transform="matrix(6.123234e-017 1 -1 6.123234e-017 866.2813 102.8057)" class="st7 st1 st26">embedded</text>
<text transform="matrix(6.123234e-017 1 -1 6.123234e-017 556.5879 102.8057)" class="st8 st1 st26">imagemap</text>
<text transform="matrix(6.123234e-017 1 -1 6.123234e-017 707.1074 347.5693)" class="st18 st1 st26">color</text>
<text transform="matrix(6.123234e-017 1 -1 6.123234e-017 515.0664 108.126)" class="st7 st1 st26">size</text>
<text transform="matrix(1 0 0 1 293.9341 165.0688)" class="st31 st1 st26">font</text>
<text transform="matrix(1 0 0 1 286.0391 122.5083)" class="st33 st1 st26">part</text>
<text transform="matrix(6.123234e-017 1 -1 6.123234e-017 842.4434 67.958)" class="st6 st1 st26">different</text>
<text transform="matrix(1 0 0 1 793.5332 162.9927)" class="st19 st1 st26">direction</text>
<text transform="matrix(6.123234e-017 1 -1 6.123234e-017 827.7861 401.7471)" class="st9 st1 st26">body</text>
<text transform="matrix(6.123234e-017 1 -1 6.123234e-017 768.0879 366.8252)" class="st21 st1 st26">used</text>
<text transform="matrix(6.123234e-017 1 -1 6.123234e-017 679.9668 74.7573)" class="st12 st1 st26">computer</text>
<text transform="matrix(1 0 0 1 458.2119 74.7573)" class="st28 st1 st26">column</text>
<text transform="matrix(1 0 0 1 750.1338 259.5322)" class="st27 st1 st26">within</text>
<text transform="matrix(6.123234e-017 1 -1 6.123234e-017 128.3633 342.3672)" class="st24 st1 st26">&lt;colgroup&gt;</text>
<text transform="matrix(1 0 0 1 746.1035 239.8091)" class="st30 st1 st26">group</text>
<text transform="matrix(6.123234e-017 1 -1 6.123234e-017 745.5156 345.7852)" class="st31 st1 st26">options</text>
<text transform="matrix(6.123234e-017 1 -1 6.123234e-017 433.0586 177.0801)" class="st0 st1 st26">cell</text>
<text transform="matrix(1 0 0 1 155.3164 430.8125)" class="st32 st1 st26">term</text>
<text transform="matrix(1 0 0 1 518.2129 84.1001)" class="st33 st1 st26">&lt;del&gt;</text>
<text transform="matrix(6.123234e-017 1 -1 6.123234e-017 410.2227 7.9121)" class="st3 st1 st26">&lt;details&gt;</text>
<text transform="matrix(6.123234e-017 1 -1 6.123234e-017 684.2695 390.5723)" class="st4 st1 st26">Represents</text>
<text transform="matrix(6.123234e-017 1 -1 6.123234e-017 532.7129 124.2402)" class="st34 st1 st26">window</text>
<text transform="matrix(6.123234e-017 1 -1 6.123234e-017 462.125 107.0391)" class="st5 st1 st26">&lt;ul&gt;</text>
<text transform="matrix(6.123234e-017 1 -1 6.123234e-017 684.2695 146.3838)" class="st7 st1 st26">external</text>
<text transform="matrix(6.123234e-017 1 -1 6.123234e-017 481.8477 390.5723)" class="st8 st1 st26">&lt;fieldset&gt;</text>
<text transform="matrix(6.123234e-017 1 -1 6.123234e-017 93.686 318.2319)" class="st18 st1 st26">related</text>
<text transform="matrix(1 0 0 1 79.9204 194.1348)" class="st6 st1 st26">form</text>
<text transform="matrix(1 0 0 1 597.7822 417.3184)" class="st19 st1 st26">&lt;figure&gt;</text>
<text transform="matrix(1 0 0 1 75.5889 298.979)" class="st19 st1 st26">footer</text>
<text transform="matrix(1 0 0 1 160.604 345.6914)" class="st9 st1 st26">frame</text>
<text transform="matrix(6.123234e-017 1 -1 6.123234e-017 435.1191 318.2319)" class="st21 st1 st26">frames</text>
<text transform="matrix(6.123234e-017 1 -1 6.123234e-017 725.793 366.8257)" class="st12 st1 st26">&lt;input&gt;</text>
<text transform="matrix(6.123234e-017 1 -1 6.123234e-017 582.541 325.1255)" class="st28 st1 st26">control</text>
<text transform="matrix(6.123234e-017 1 -1 6.123234e-017 686.3457 344.7715)" class="st27 st1 st26">item</text>
<text transform="matrix(1 0 0 1 411.0205 94.4805)" class="st32 st1 st26">style</text>
<text transform="matrix(6.123234e-017 1 -1 6.123234e-017 132.7793 429.0859)" class="st24 st1 st26">users</text>
<text transform="matrix(1 0 0 1 495.5654 168.1831)" class="st30 st1 st26">ruby</text>
<text transform="matrix(6.123234e-017 1 -1 6.123234e-017 442.4023 51.3408)" class="st31 st1 st26">East</text>
<text transform="matrix(6.123234e-017 1 -1 6.123234e-017 752.7832 184.5493)" class="st0 st1 st26">Asian</text>
<text transform="matrix(1 0 0 1 70.5693 146.3838)" class="st32 st1 st26">typography</text>
<text transform="matrix(1 0 0 1 405.7607 112.1274)" class="st33 st1 st26">&lt;s&gt;</text>
<text transform="matrix(1 0 0 1 699.0742 194.1348)" class="st3 st1 st26">&lt;abbr&gt;</text>
<text transform="matrix(1 0 0 1 501.6963 428.7363)" class="st4 st1 st26">acronym</text>
<text transform="matrix(6.123234e-017 1 -1 6.123234e-017 158.3066 350.6836)" class="st34 st1 st26">&lt;embed&gt;</text>
<text transform="matrix(6.123234e-017 1 -1 6.123234e-017 574.2363 156.9189)" class="st19 st1 st10">&lt;a&gt;</text>
<text transform="matrix(1 0 0 1 827.7861 393.1318)" class="st27 st1 st10">&lt;button&gt;</text>
<text transform="matrix(6.123234e-017 1 -1 6.123234e-017 572.1602 114.0811)" class="st24 st1 st10">clickable</text>
<text transform="matrix(6.123234e-017 1 -1 6.123234e-017 470.8271 173.1118)" class="st30 st1 st10">button</text>
<text transform="matrix(1 0 0 1 815.4434 59.1865)" class="st31 st1 st10">&lt;canvas&gt;</text>
<text transform="matrix(6.123234e-017 1 -1 6.123234e-017 667.1777 359.1865)" class="st4 st1 st10">draw</text>
<text transform="matrix(1 0 0 1 495.0176 374.7578)" class="st0 st1 st10">graphics</text>
<text transform="matrix(6.123234e-017 1 -1 6.123234e-017 589.8066 311.3779)" class="st32 st1 st10">fly</text>
<text transform="matrix(1 0 0 1 107.438 335.311)" class="st33 st1 st10">scripting</text>
<text transform="matrix(6.123234e-017 1 -1 6.123234e-017 311.834 67.958)" class="st4 st1 st10">usually</text>
<text transform="matrix(1 0 0 1 523.3867 69.5669)" class="st3 st1 st10">&lt;caption&gt;</text>
<text transform="matrix(1 0 0 1 284.7769 174.4111)" class="st4 st1 st10">&lt;center&gt;</text>
<text transform="matrix(6.123234e-017 1 -1 6.123234e-017 647.9375 347.5693)" class="st5 st1 st10">&lt;cite&gt;</text>
<text transform="matrix(1 0 0 1 647.9375 137.041)" class="st7 st1 st10">work</text>
<text transform="matrix(6.123234e-017 1 -1 6.123234e-017 798.457 346.1953)" class="st8 st1 st10">&lt;code&gt;</text>
<text transform="matrix(6.123234e-017 1 -1 6.123234e-017 659.3574 67.958)" class="st18 st1 st10">piece</text>
<text transform="matrix(1 0 0 1 296.314 191.0205)" class="st6 st1 st10">&lt;col&gt;</text>
<text transform="matrix(1 0 0 1 122.377 162.9927)" class="st12 st1 st10">one</text>
<text transform="matrix(6.123234e-017 1 -1 6.123234e-017 194.3047 52.0923)" class="st19 st1 st10">columns</text>
<text transform="matrix(6.123234e-017 1 -1 6.123234e-017 173.543 435.1836)" class="st9 st1 st10">formatting</text>
<text transform="matrix(6.123234e-017 1 -1 6.123234e-017 713.3359 197.1367)" class="st21 st1 st10">&lt;datalist&gt;</text>
<text transform="matrix(1 0 0 1 158.3066 140.1553)" class="st12 st1 st10">predefined</text>
<text transform="matrix(1 0 0 1 360.1494 202.439)" class="st28 st1 st10">controls</text>
<text transform="matrix(6.123234e-017 1 -1 6.123234e-017 226.2583 154.688)" class="st27 st1 st10">&lt;dd&gt;</text>
<text transform="matrix(6.123234e-017 1 -1 6.123234e-017 210.9141 14.5073)" class="st24 st1 st10">descriptionvalue</text>
<text transform="matrix(6.123234e-017 1 -1 6.123234e-017 655.2051 28.2974)" class="st30 st1 st10">deleted</text>
<text transform="matrix(1 0 0 1 467.2764 58.1484)" class="st4 st1 st10">additional</text>
<text transform="matrix(6.123234e-017 1 -1 6.123234e-017 500.5332 109.7515)" class="st31 st1 st10">details</text>
<text transform="matrix(1 0 0 1 299.7114 137.041)" class="st0 st1 st10">view</text>
<text transform="matrix(6.123234e-017 1 -1 6.123234e-017 493.2676 175.3013)" class="st32 st1 st10">hide</text>
<text transform="matrix(1 0 0 1 599.1592 237.7334)" class="st33 st1 st10">&lt;dfn&gt;</text>
<text transform="matrix(6.123234e-017 1 -1 6.123234e-017 555.5508 431.6846)" class="st3 st1 st10">defining</text>
<text transform="matrix(6.123234e-017 1 -1 6.123234e-017 800.5332 214.8706)" class="st4 st1 st10">instance</text>
<text transform="matrix(6.123234e-017 1 -1 6.123234e-017 787.0391 31.6934)" class="st34 st1 st10">&lt;dialog&gt;</text>
<text transform="matrix(6.123234e-017 1 -1 6.123234e-017 787.0391 197.2437)" class="st5 st1 st10">dialog</text>
<text transform="matrix(6.123234e-017 1 -1 6.123234e-017 454.8594 268.5415)" class="st0 st1 st10">box</text>
<text transform="matrix(1 0 0 1 806.8799 77.791)" class="st7 st1 st10">&lt;dir&gt;</text>
<text transform="matrix(1 0 0 1 607.4668 249.1519)" class="st8 st1 st10">directory</text>
<text transform="matrix(1 0 0 1 416.9854 395.5186)" class="st4 st1 st10">&lt;div&gt;</text>
<text transform="matrix(6.123234e-017 1 -1 6.123234e-017 866.2813 359.1865)" class="st18 st1 st10">&lt;dl&gt;</text>
<text transform="matrix(6.123234e-017 1 -1 6.123234e-017 457.9727 318.2319)" class="st6 st1 st10">&lt;dt&gt;</text>
<text transform="matrix(6.123234e-017 1 -1 6.123234e-017 786 346.0381)" class="st8 st1 st10">centered</text>
<text transform="matrix(6.123234e-017 1 -1 6.123234e-017 700.8789 226.9805)" class="st34 st1 st10">main</text>
<text transform="matrix(1 0 0 1 705.1836 266.7988)" class="st21 st1 st10">break</text>
<text transform="matrix(6.123234e-017 -1.428 -1 -8.743914e-017 821.6406 374.7578)" class="st6 st1 st10">line</text>
<text transform="matrix(6.123234e-017 1 -1 6.123234e-017 575.2734 75.9448)" class="st4 st1 st10">single</text>
<text transform="matrix(6.123234e-017 1 -1 6.123234e-017 482.8867 118.6479)" class="st3 st1 st10">&lt;br&gt;</text>
<text transform="matrix(6.123234e-017 1 -1 6.123234e-017 154.8594 80.8389)" class="st0 st1 st10">documents</text>
<text transform="matrix(1 0 0 1 287.3931 150.5361)" class="st4 st1 st10">&lt;body&gt;</text>
<text transform="matrix(6.123234e-017 1 -1 6.123234e-017 806.8799 114.0811)" class="st21 st1 st10">source</text>
<text transform="matrix(6.123234e-017 1 -1 6.123234e-017 180.8105 54.8486)" class="st21 st1 st10">another</text>
<text transform="matrix(6.123234e-017 1 -1 6.123234e-017 714.375 386.7617)" class="st21 st1 st10">quoted</text>
<text transform="matrix(1 0 0 1 267.1626 208.6431)" class="st6 st1 st10">&lt;blockquote&gt;</text>
<text transform="matrix(6.123234e-017 1 -1 6.123234e-017 168.3535 188.3633)" class="st7 st1 st10">big</text>
<text transform="matrix(6.123234e-017 1 -1 6.123234e-017 772.5059 182.8286)" class="st3 st1 st10">&lt;big&gt;</text>
<text transform="matrix(1 0 0 1 463.8281 85.1382)" class="st30 st1 st10">current</text>
<text transform="matrix(1 0 0 1 61.686 427.6982)" class="st4 st1 st10">Overrides</text>
<text transform="matrix(1 0 0 1 132.7793 186.8682)" class="st19 st1 st10">termname</text>
<text transform="matrix(1 0 0 1 729.1729 177.5254)" class="st9 st1 st10">&lt;em&gt;</text>
<text transform="matrix(1 0 0 1 621.1787 430.8125)" class="st21 st1 st10">emphasized</text>
<text transform="matrix(6.123234e-017 1 -1 6.123234e-017 799.4961 385.1211)" class="st12 st1 st10">container</text>
<text transform="matrix(1 0 0 1 783.8369 175.3013)" class="st3 st1 st10">&lt;bdo&gt;</text>
<text transform="matrix(1 0 0 1 519.8906 59.1865)" class="st28 st1 st10">nonHTML</text>
</svg>
